<?xml version="1.0" encoding="UTF-8"?>
<!DOCTYPE svg PUBLIC "-//W3C//DTD SVG 1.1//EN" "http://www.w3.org/Graphics/SVG/1.1/DTD/svg11.dtd">
<!-- Creator: CorelDRAW 2018 (64-Bit) -->
<svg xmlns="http://www.w3.org/2000/svg" xml:space="preserve" width="309.267mm" height="96.481mm" version="1.1" style="shape-rendering:geometricPrecision; text-rendering:geometricPrecision; image-rendering:optimizeQuality; fill-rule:evenodd; clip-rule:evenodd"
viewBox="0 0 7281.59 2271.61"
 xmlns:xlink="http://www.w3.org/1999/xlink">
 <defs>
  <style type="text/css">
   <![CDATA[
    .str0 {stroke:#C0AE9A;stroke-width:5.89;stroke-miterlimit:22.9256}
    .str1 {stroke:#A88A68;stroke-width:23.54;stroke-linecap:round;stroke-linejoin:round;stroke-miterlimit:10}
    .fil6 {fill:none;fill-rule:nonzero}
    .fil7 {fill:#A88A68;fill-rule:nonzero;fill-opacity:0.278431}
    .fil3 {fill:#4A433D}
    .fil4 {fill:#565925}
    .fil1 {fill:#9DA34D}
    .fil0 {fill:#A88A68}
    .fil2 {fill:#C0AE9A}
    .fil5 {fill:#FFE385}
   ]]>
  </style>
 </defs>
 <g id="Слой_x0020_1">
  <metadata id="CorelCorpID_0Corel-Layer"/>
  <g id="_2282033903088">
   <polygon class="fil0 str0" points="5941.06,1233.66 5943.05,749.06 6140.4,749.06 6139.4,1234.47 "/>
   <polygon class="fil0 str0" points="6379.62,1233.66 6381.61,749.06 6578.96,749.06 6577.96,1234.47 "/>
   <polygon class="fil0 str0" points="6139.4,1234.47 6140.4,749.06 6261.5,749.06 6260.01,1234.47 "/>
   <polygon class="fil0 str0" points="6260.51,1234.47 6261.5,749.06 6382.6,749.06 6381.11,1234.47 "/>
   <polygon class="fil0 str0" points="6576.97,1845.46 6576.97,1435.81 6379.61,1435.81 6377.62,1845.46 "/>
   <polygon class="fil0 str0" points="6377.64,1923.43 6379.61,1435.81 6259.01,1435.81 6257.02,1927.19 "/>
   <polygon class="fil0 str0" points="6257.02,1926.62 6259.01,1435.81 6138.41,1435.81 6136.41,1930.18 "/>
   <polygon class="fil0 str0" points="6136.41,1930.18 6138.41,1435.81 5941.06,1435.81 5939.06,1935.16 "/>
   <polygon class="fil0 str0" points="4150.94,1167.69 3472.17,1167.69 3472.17,1308.23 4149.94,1308.23 "/>
   <polygon class="fil0 str0" points="3473.17,1047.08 4150.94,1047.08 4150.94,1167.69 3472.36,1164.97 "/>
   <polygon class="fil0 str0" points="3541.12,963.39 3473.17,964.36 3473.17,1047.08 4150.94,1047.08 4151.94,927.48 3541.94,927.48 "/>
   <polygon class="fil0 str0" points="4151.94,806.87 3541.94,806.87 3541.94,927.48 4151.94,927.48 "/>
   <polygon class="fil0 str0" points="4152.93,649.39 3541.94,649.39 3541.94,806.87 4151.94,806.87 "/>
  </g>
  <g id="_2281889726608">
   <polygon class="fil1 str0" points="5305.67,1234.47 5307.4,749.06 4989.45,749.06 4987.72,1234.47 "/>
   <polygon class="fil1 str0" points="5623.63,1234.47 5625.36,749.06 5307.4,749.06 5305.68,1234.47 "/>
   <polygon class="fil1 str0" points="5941.58,1234.47 5943.32,749.06 5625.36,749.06 5623.64,1234.47 "/>
   <polygon class="fil1 str0" points="4987.71,1234.47 4989.45,749.06 4671.49,749.06 4669.77,1234.47 "/>
   <polygon class="fil1 str0" points="5939.06,1935.16 5941.06,1435.81 5622.91,1435.81 5621.11,1943.14 "/>
   <polygon class="fil1 str0" points="5621.11,1943.14 5622.91,1435.81 5304.98,1435.81 5303.15,1952.11 "/>
   <polygon class="fil1 str0" points="5303.15,1952.11 5304.98,1435.81 4987.19,1435.81 4985.2,1960.08 "/>
   <polygon class="fil1 str0" points="4985.2,1960.08 4987.19,1435.81 4685.18,1435.81 4683.19,1968.06 "/>
   <polygon class="fil1 str0" points="3731.32,1708.91 3733.31,1308.23 3472.17,1308.23 3470.18,1709.91 "/>
   <polygon class="fil1 str0" points="3470.18,1709.91 3473.17,964.36 3212.03,965.35 3209.03,1708.91 "/>
   <polygon class="fil1 str0" points="3212.03,965.35 3209.03,1708.91 2947.89,1709.91 2938.92,951.4 "/>
   <polygon class="fil1 str0" points="4153.93,381.27 3542.94,381.27 3541.94,649.39 4152.93,649.39 "/>
   <polygon class="fil1 str0" points="4153.93,381.27 3542.94,381.27 3543.93,114.15 4154.93,114.15 "/>
  </g>
  <g id="_2282036969968">
   <polygon class="fil2 str0" points="2929.95,131.09 2934.93,574.64 2240.22,582.61 2234.19,132.68 "/>
   <polygon class="fil2 str0" points="2234.19,132.68 2240.22,582.61 1554.47,590.59 1550.19,145.14 "/>
  </g>
  <g id="_2282036968368">
   <polygon class="fil3 str0" points="6263,263.66 6261.5,749.06 6578.96,749.06 6580.95,263.66 "/>
   <polygon class="fil3 str0" points="6261.5,749.06 6263,263.66 5945.04,263.66 5943.05,749.06 "/>
   <polygon class="fil3 str0" points="5943.05,749.06 5945.04,263.66 5627.09,263.66 5625.36,749.06 "/>
   <polygon class="fil3 str0" points="5625.36,749.06 5627.09,263.66 5309.13,263.66 5307.41,749.06 "/>
   <polygon class="fil3 str0" points="5307.4,749.06 5309.13,263.66 4991.18,263.66 4989.45,749.06 "/>
   <polygon class="fil3 str0" points="4989.45,749.06 4991.18,263.66 4673.22,263.66 4671.5,749.06 "/>
   <polygon class="fil3 str0" points="4671.49,749.06 4673.22,263.66 4355.26,263.66 4353.54,749.06 "/>
   <polygon class="fil3 str0" points="2947.89,1709.91 2943.38,1328.17 2349.86,1335.14 2353.85,1661.07 2403.68,1710.9 "/>
   <polygon class="fil3 str0" points="2943.38,1328.17 2938.92,951.4 2344.87,958.38 2349.86,1335.14 "/>
   <polygon class="fil3 str0" points="2934.93,574.64 2340.89,581.61 2344.87,958.38 2938.92,951.4 "/>
   <polygon class="fil3 str0" points="1554.47,590.59 2139.55,583.61 2144.53,960.37 1558.46,967.35 "/>
   <polygon class="fil3 str0" points="2144.53,960.37 1558.46,967.35 1562.45,1344.11 2148.52,1337.13 "/>
   <polygon class="fil3 str0" points="2152.51,1663.06 2148.52,1337.13 1562.45,1344.11 1567.43,1720.87 2102.67,1713.89 "/>
  </g>
  <g id="_2282034320848">
   <polygon class="fil4 str0" points="868.19,758.05 1555.47,750.06 1550.19,145.14 861.2,157 "/>
   <polygon class="fil4 str0" points="868.19,758.05 861.2,157 173.46,166.97 183.53,766 "/>
  </g>
  <g id="_2282034321744">
   <polygon class="fil5 str0" points="1567.42,1719.79 1561.45,1235.46 976.18,1242.43 981.36,1677.01 1033.18,1726.85 "/>
   <polygon class="fil5 str0" points="1561.3,1235.47 1555.47,750.06 970.39,757.04 976.18,1242.43 "/>
   <polygon class="fil5 str0" points="769.05,759.03 183.53,766 188.96,1251.41 775.03,1244.43 "/>
   <polygon class="fil5 str0" points="775.03,1244.43 188.96,1251.41 194.94,1736.82 730.18,1730.84 780.02,1680 "/>
  </g>
  <g id="_2282034322512">
   <path class="fil6 str1" d="M4296.21 1983.75l-1 124.59m4.98 -919.86c-0.1,27.69 10.83,54.28 30.37,73.9 19.54,19.62 46.09,30.64 73.78,30.64m-108.14 815.15c-0.18,36.08 14.19,70.7 39.86,96.05 25.67,25.35 60.47,39.28 96.54,38.66m-362.66 9.99l-2628.36 6.98 -1371.91 0m3573.68 -291.04l0 -109.64m561.15 109.64l-561.15 0m-3577.25 -74.75l2895.49 -34.89m-525.27 -85.72l353.84 -3.99m-489.38 -128.49c0.87,74.03 61.6,133.34 135.63,132.47m1995.84 -388.71c-73.84,0.01 -133.77,59.73 -134.04,133.57m-1.99 465.46l1.99 -464.47m3.99 -1163.18l-2.99 832.26m137.04 -966.82c-73.84,0.01 -133.78,59.73 -134.04,133.57m2280.5 -132.57l-2146.94 0m-230.24 1411.36l4.98 -1503.06m-138.86 1636.62c73.78,-0.1 133.61,-59.79 133.88,-133.57m-1415.35 135.56l1281.79 -1.99m132.36 218.32c-0,-0.04 -0,-0.07 -0,-0.1m-1244.7 -126.52l683.75 0m-1566.77 -81.74c74.03,-0.87 133.34,-61.6 132.47,-135.63m-1145.23 147.6l1012.67 -11.96m-1148.22 -120.52c0.87,74.03 61.6,133.34 135.63,132.47m-359.82 3.99c74.03,-0.87 133.34,-61.6 132.47,-135.63m-763.48 143.61l630.93 -6.98m4716.5 -1567.85l-1.99 0m-1347.76 2026.34c73.73,-0.17 133.48,-59.84 133.75,-133.57m0 -150.5l-1 151.5m228.25 122.6l2165.62 -43.86"/>
   <path class="fil7" d="M3344.28 2074.46l-3344.28 23.08c33.71,-699.18 67.49,-1398.36 101.25,-2097.54l756.01 108.47 1969.61 -28.9 707.46 -41.69c1248.77,0 2497.91,5.8 3746.71,8.71l0.54 791.36 -659.99 8.13 -4.01 1140.74c-1079.78,28.88 -2197.7,87.64 -3273.32,87.64zm-3282.67 -35.98l3281.86 -22.65 3215.69 -86.12 4.01 -1141.55 659.75 -8.13 -0.46 -674.95 -3684.74 -8.57 -707.4 41.66c-656.23,0 -1320.63,18.97 -1977.61,29l-695.95 -99.85 -95.15 1971.15z"/>
  </g>
 </g>
</svg>
