<?xml version="1.0" encoding="UTF-8"?>
<!DOCTYPE svg PUBLIC "-//W3C//DTD SVG 1.1//EN" "http://www.w3.org/Graphics/SVG/1.1/DTD/svg11.dtd">
<!-- Creator: CorelDRAW 2018 (64-Bit) -->
<svg xmlns="http://www.w3.org/2000/svg" xml:space="preserve" width="309.267mm" height="96.481mm" version="1.1" style="shape-rendering:geometricPrecision; text-rendering:geometricPrecision; image-rendering:optimizeQuality; fill-rule:evenodd; clip-rule:evenodd"
viewBox="0 0 7732.79 2412.37"
 xmlns:xlink="http://www.w3.org/1999/xlink">
 <defs>
  <style type="text/css">
   <![CDATA[
    .str5 {stroke:#4A433D;stroke-width:6.25;stroke-miterlimit:22.9256;stroke-opacity:0.200000}
    .str3 {stroke:#4A433D;stroke-width:6.25;stroke-miterlimit:22.9256;stroke-opacity:0.400000}
    .str0 {stroke:#4A433D;stroke-width:6.25;stroke-miterlimit:22.9256;stroke-opacity:0.501961}
    .str1 {stroke:#4A433D;stroke-width:6.25;stroke-miterlimit:22.9256;stroke-opacity:0.701961}
    .str2 {stroke:#4A433D;stroke-width:6.25;stroke-miterlimit:22.9256;stroke-opacity:0.800000}
    .str4 {stroke:#4A433D;stroke-width:6.25;stroke-miterlimit:22.9256}
    .str6 {stroke:#A88A68;stroke-width:25;stroke-linecap:round;stroke-linejoin:round;stroke-miterlimit:10}
    .fil6 {fill:none;fill-rule:nonzero}
    .fil4 {fill:#C0AE9A}
    .fil5 {fill:#C0AE9A;fill-opacity:0.200000}
    .fil7 {fill:#A88A68;fill-rule:nonzero;fill-opacity:0.278431}
    .fil3 {fill:#C0AE9A;fill-opacity:0.400000}
    .fil0 {fill:#C0AE9A;fill-opacity:0.501961}
    .fil1 {fill:#C0AE9A;fill-opacity:0.701961}
    .fil2 {fill:#C0AE9A;fill-opacity:0.800000}
   ]]>
  </style>
 </defs>
 <g id="Слой_x0020_1">
  <metadata id="CorelCorpID_0Corel-Layer"/>
  <g id="_2281890928256">
   <polygon class="fil0 str0" points="6309.19,1310.1 6311.31,795.48 6520.89,795.48 6519.83,1310.96 "/>
   <polygon class="fil0 str0" points="6774.93,1310.1 6777.04,795.48 6986.62,795.48 6985.56,1310.96 "/>
   <polygon class="fil0 str0" points="6519.83,1310.96 6520.89,795.48 6649.49,795.48 6647.91,1310.96 "/>
   <polygon class="fil0 str0" points="6648.44,1310.96 6649.49,795.48 6778.1,795.48 6776.51,1310.96 "/>
   <polygon class="fil0 str0" points="6984.5,1959.81 6984.5,1524.77 6774.92,1524.77 6772.81,1959.81 "/>
   <polygon class="fil0 str0" points="6772.82,2042.62 6774.92,1524.77 6646.85,1524.77 6644.73,2046.61 "/>
   <polygon class="fil0 str0" points="6644.73,2046 6646.85,1524.77 6518.77,1524.77 6516.65,2049.79 "/>
   <polygon class="fil0 str0" points="6516.65,2049.79 6518.77,1524.77 6309.19,1524.77 6307.07,2055.08 "/>
   <polygon class="fil0 str0" points="4408.15,1240.04 3687.32,1240.04 3687.32,1389.29 4407.09,1389.29 "/>
   <polygon class="fil0 str0" points="3688.38,1111.97 4408.15,1111.97 4408.15,1240.04 3687.52,1237.16 "/>
   <polygon class="fil0 str0" points="3760.55,1023.09 3688.38,1024.11 3688.38,1111.97 4408.15,1111.97 4409.21,984.95 3761.41,984.95 "/>
   <polygon class="fil0 str0" points="4409.21,856.87 3761.41,856.87 3761.41,984.95 4409.21,984.95 "/>
   <polygon class="fil0 str0" points="4410.27,689.63 3761.41,689.63 3761.41,856.87 4409.21,856.87 "/>
  </g>
  <g id="_2281890934496">
   <polygon class="fil1 str1" points="5634.44,1310.96 5636.27,795.48 5298.61,795.48 5296.79,1310.96 "/>
   <polygon class="fil1 str1" points="5972.09,1310.96 5973.93,795.48 5636.27,795.48 5634.45,1310.96 "/>
   <polygon class="fil1 str1" points="6309.75,1310.96 6311.59,795.48 5973.93,795.48 5972.1,1310.96 "/>
   <polygon class="fil1 str1" points="5296.78,1310.96 5298.61,795.48 4960.96,795.48 4959.13,1310.96 "/>
   <polygon class="fil1 str1" points="6307.07,2055.08 6309.19,1524.77 5971.34,1524.77 5969.42,2063.55 "/>
   <polygon class="fil1 str1" points="5969.42,2063.55 5971.34,1524.77 5633.7,1524.77 5631.76,2073.07 "/>
   <polygon class="fil1 str1" points="5631.76,2073.07 5633.7,1524.77 5296.22,1524.77 5294.1,2081.54 "/>
   <polygon class="fil1 str1" points="5294.1,2081.54 5296.22,1524.77 4975.5,1524.77 4973.38,2090.01 "/>
   <polygon class="fil1 str1" points="3962.53,1814.8 3964.64,1389.29 3687.32,1389.29 3685.2,1815.86 "/>
   <polygon class="fil1 str1" points="3685.2,1815.86 3688.38,1024.11 3411.06,1025.17 3407.88,1814.8 "/>
   <polygon class="fil1 str1" points="3411.06,1025.17 3407.88,1814.8 3130.56,1815.86 3121.03,1010.35 "/>
   <polygon class="fil1 str1" points="4411.33,404.9 3762.48,404.9 3761.41,689.63 4410.27,689.63 "/>
   <polygon class="fil1 str1" points="4411.33,404.9 3762.48,404.9 3763.53,121.22 4412.38,121.22 "/>
  </g>
  <g id="_2281890924864">
   <polygon class="fil2 str2" points="3111.51,139.22 3116.8,610.24 2379.03,618.71 2372.63,140.9 "/>
   <polygon class="fil2 str2" points="2372.63,140.9 2379.03,618.71 1650.8,627.18 1646.24,154.13 "/>
  </g>
  <g id="_2282034548544">
   <polygon class="fil3 str3" points="6651.08,280 6649.49,795.48 6986.62,795.48 6988.74,280 "/>
   <polygon class="fil3 str3" points="6649.49,795.48 6651.08,280 6313.43,280 6311.31,795.48 "/>
   <polygon class="fil3 str3" points="6311.31,795.48 6313.43,280 5975.77,280 5973.93,795.48 "/>
   <polygon class="fil3 str3" points="5973.93,795.48 5975.77,280 5638.11,280 5636.28,795.48 "/>
   <polygon class="fil3 str3" points="5636.27,795.48 5638.11,280 5300.45,280 5298.62,795.48 "/>
   <polygon class="fil3 str3" points="5298.61,795.48 5300.45,280 4962.79,280 4960.97,795.48 "/>
   <polygon class="fil3 str3" points="4960.96,795.48 4962.79,280 4625.13,280 4623.31,795.48 "/>
   <polygon class="fil3 str3" points="3130.56,1815.86 3125.76,1410.47 2495.47,1417.87 2499.7,1763.99 2552.63,1816.92 "/>
   <polygon class="fil3 str3" points="3125.76,1410.47 3121.03,1010.35 2490.17,1017.76 2495.47,1417.87 "/>
   <polygon class="fil3 str3" points="3116.8,610.24 2485.94,617.65 2490.17,1017.76 3121.03,1010.35 "/>
   <polygon class="fil3 str3" points="1650.8,627.18 2272.13,619.77 2277.42,1019.88 1655.03,1027.29 "/>
   <polygon class="fil3 str3" points="2277.42,1019.88 1655.03,1027.29 1659.26,1427.4 2281.65,1419.98 "/>
   <polygon class="fil3 str3" points="2285.89,1766.11 2281.65,1419.98 1659.26,1427.4 1664.56,1827.5 2232.96,1820.09 "/>
  </g>
  <g id="_2282034534560">
   <polygon class="fil4 str4" points="921.98,805.02 1651.85,796.54 1646.24,154.13 914.56,166.73 "/>
   <polygon class="fil4 str4" points="921.98,805.02 914.56,166.73 184.21,177.32 194.9,813.47 "/>
  </g>
  <g id="_2282034537088">
   <polygon class="fil5 str5" points="1664.54,1826.35 1658.2,1312.02 1036.67,1319.42 1042.17,1780.93 1097.21,1833.85 "/>
   <polygon class="fil5 str5" points="1658.04,1312.02 1651.85,796.54 1030.52,803.95 1036.67,1319.42 "/>
   <polygon class="fil5 str5" points="816.71,806.06 194.9,813.47 200.67,1328.96 823.06,1321.55 "/>
   <polygon class="fil5 str5" points="823.06,1321.55 200.67,1328.96 207.02,1844.44 775.43,1838.09 828.35,1784.1 "/>
  </g>
  <g id="_2282034546400">
   <path class="fil6 str6" d="M4562.42 2106.67l-1.06 132.31m5.29 -976.86c-0.11,29.41 11.5,57.64 32.25,78.48 20.75,20.83 48.95,32.54 78.36,32.54m-114.84 865.66c-0.19,38.31 15.07,75.08 42.33,102 27.26,26.92 64.22,41.72 102.52,41.05m-385.13 10.61l-2791.23 7.41 -1456.93 0m3795.12 -309.08l0 -116.43m595.93 116.43l-595.93 0m-3798.91 -79.39l3074.9 -37.05m-557.82 -91.03l375.76 -4.24m-519.7 -136.45c0.93,78.62 65.41,141.6 144.03,140.68m2119.51 -412.8c-78.42,0.01 -142.06,63.43 -142.35,141.85m-2.12 494.3l2.12 -493.25m4.23 -1235.25l-3.18 883.83m145.53 -1026.73c-78.42,0.01 -142.07,63.43 -142.35,141.85m2421.81 -140.79l-2279.98 0m-244.51 1498.82l5.29 -1596.2m-147.47 1738.03c78.35,-0.11 141.89,-63.5 142.17,-141.85m-1503.05 143.96l1361.21 -2.12m140.56 231.85c-0,-0.04 -0,-0.07 -0.01,-0.11m-1321.82 -134.36l726.12 0m-1663.85 -86.81c78.62,-0.93 141.6,-65.41 140.68,-144.04m-1216.19 156.75l1075.42 -12.7m-1219.37 -127.99c0.93,78.62 65.41,141.61 144.03,140.68m-382.11 4.23c78.62,-0.93 141.6,-65.41 140.68,-144.03m-810.79 152.51l670.02 -7.41m5008.75 -1665l-2.12 0m-1431.27 2151.9c78.3,-0.18 141.75,-63.55 142.04,-141.85m0 -159.82l-1.06 160.89m242.39 130.19l2299.82 -46.57"/>
   <path class="fil7" d="M3551.51 2203l-3551.51 24.51c35.8,-742.5 71.68,-1485.01 107.53,-2227.51l802.86 115.19 2091.66 -30.69 751.3 -44.27c1326.15,0 2652.69,6.16 3978.87,9.25l0.58 840.4 -700.88 8.63 -4.26 1211.42c-1146.69,30.67 -2333.88,93.07 -3476.15,93.07zm-3486.08 -38.21l3485.22 -24.05 3414.95 -91.46 4.26 -1212.29 700.63 -8.63 -0.49 -716.77 -3913.06 -9.1 -751.23 44.24c-696.9,0 -1402.46,20.14 -2100.16,30.8l-739.07 -106.04 -101.05 2093.29z"/>
  </g>
 </g>
</svg>
